{"title":"The Twilight Saga Breaking Dawn Part 1 2011 BRRIP HC XVID AC3 - ","uid":6987973,"size":2081267881,"categoryP":"video","categoryS":"movies","magnet":"?xt=urn:btih:c820ae2c95c1ce6197c770db6dba4321909194f0&amp;dn=The+Twilight+Saga+Breaking+Dawn+Part+1+2011+BRRIP+HC+XVID+AC3+-+&amp;tr=udp%3A%2F%2Ftracker.openbittorrent.com%3A80&amp;tr=udp%3A%2F%2Fopen.demonii.com%3A1337&amp;tr=udp%3A%2F%2Ftracker.coppersurfer.tk%3A6969&amp;tr=udp%3A%2F%2Fexodus.desync.com%3A6969","seeders":2,"leechers":0,"uploader":"TvTeam","files":72,"time":1327627882,"description":". \n &lt;a href=&quot;\nhttp://www.torrenting.com&quot; rel=&quot;nofollow&quot; target=&quot;_NEW&quot;&gt;\nhttp://www.torrenting.com&lt;/a&gt;          :     Once &amp; For all ;)\n\n\n               www . Torrenting . Com \n\n(((((((((((((= Enjoy No RAR releases =))))))))))))))))))))\n\n\n...................................NFO:....................................\n\n.[align=center]\n        [/align]\n[size=3][color=#009999]\n\n\n\n   The Twilight Saga Breaking Dawn Part 1 2011 BRRIP HC XVID AC3 - Xtreme Encode\n\n\n\n[/color][/size]\n\n\n[size=3]\n[color=#CC9933]General\n\n\nComplete name                    : The Twilight Saga Breaking Dawn Part 1 2011 BRRIP HC XVID AC3 - Xtreme Encode.avi\nFormat                           : AVI\nFormat/Info                      : Audio Video Interleave\nFormat profile                   : OpenDML\nFormat settings                  : rec\nFile size                        : 1 004 MiB\nDuration                         : 1h 57mn\nOverall bit rate                 : 1 198 Kbps[/color][/size]\n\n\n\n\n[size=3][color=#669900]\nVideo\n\n\nID                               : 0\nFormat                           : MPEG-4 Visual\nFormat profile                   : Advanced Simple@L5\nFormat settings, BVOP            : 2\nFormat settings, QPel            : No\nFormat settings, GMC             : No warppoints\nFormat settings, Matrix          : Default (H.263)\nCodec ID                         : XVID\nCodec ID/Hint                    : XviD\nDuration                         : 1h 57mn\nBit rate                         : 744 Kbps\nWidth                            : 1 264 pixels\nHeight                           : 528 pixels\nDisplay aspect ratio             : 2.40:1\nFrame rate                       : 23.976 fps\nColor space                      : YUV\nChroma subsampling               : 4:2:0\nBit depth                        : 8 bits\nScan type                        : Progressive\nCompression mode                 : Lossy\nBits/(Pixel*Frame)               : 0.047\nStream size                      : 624 MiB (62%)[/color][/size]\n\n\n\n\n[size=3][color=#009900]Audio\n\n\nID                               : 1\nFormat                           : AC-3\nFormat/Info                      : Audio Coding 3\nMode extension                   : CM (complete main)\nCodec ID                         : 2000\nDuration                         : 1h 57mn\nBit rate mode                    : Constant\nBit rate                         : 448 Kbps\nChannel(s)                       : 6 channels\nChannel positions                : Front: L C R, Side: L R, LFE\nSampling rate                    : 48.0 KHz\nBit depth                        : 16 bits\nCompression mode                 : Lossy\nStream size                      : 375 MiB (37%)\nAlignment                        : Aligned on interleaves\nInterleave, duration             : 64 ms (1.53 video frames)\nInterleave, preload duration     : 192 ms[/color][/size]\n\n\n\n\n\n[size=3][color=#6699FF]\nSOURCE\nVideo : 720p.BluRay.x264-SPARKS\nAudio : 720p.BluRay.x264-SPARKS\n\n\n\nJUST A LITTLE MESS WITH THIS ADDES BIT OF CONTRAS \nRESIZED BIT TWEAKED BIT SHARPEN in \nSAT HUE and few othere things \n\nSAMPLE: YES\n\nSUBTITLES: HC FOR BITS WERE NEEDED AND ICLUDES FULL SUBTITLES\n\n  \n:)[/color][/size]\n\n\n\n[size=3][color=#0099CC]PLOT\nThe Quileutes close in on expecting parents Edward and Bella, \nwhose unborn child poses a threat to the Wolf Pack and the towns people of Forks. \n \n\n\n [/color][/size]\n\n\n[size=3][color=#CC6600]Genres: Adventure | Drama | Fantasy \n\n\nDirector: Bill Condon\n\nWriters: Melissa Rosenberg (screenplay), Stephenie Meyer (novel)\n\nStars: Kristen Stewart, Robert Pattinson and Taylor Lautner [/color][/size]\n\n\n[size=3][color=#0033FF]IMDB: http://www.imdb.com/title/tt1324999/[/color][/size]\n\n\n\n[size=3][color=#996600]HOPE U ALL LIKE THIS IF SO PLS REP :)[/color][/size]\n\n\n[size=3][color=#CC0000]\nSCREENS:\n\n\n\n\n\n[/color][/size]\n\n\n[size=3][b][font=Times New Roman][color=#3366CC]\n      GREETS:\n\nIMAGiNE / ELEKTRI4KA / FLAWL3SS  \nViSiON / CRYS / BMB / MiSTERE / 26K\nAMB / FYA / Jamie111 / VISUALiSE  \nILLUMINATI / Rx / REFiLL / BHRG\nTO MY FRIENDS  AND ALL OTHER GROUPS  :)[/color][/font][/b][/size]","torrent":{"xt":"urn:btih:c820ae2c95c1ce6197c770db6dba4321909194f0","amp;dn":"The+Twilight+Saga+Breaking+Dawn+Part+1+2011+BRRIP+HC+XVID+AC3+-+","amp;tr":["udp%3A%2F%2Ftracker.openbittorrent.com%3A80","udp%3A%2F%2Fopen.demonii.com%3A1337","udp%3A%2F%2Ftracker.coppersurfer.tk%3A6969","udp%3A%2F%2Fexodus.desync.com%3A6969"],"infoHash":"c820ae2c95c1ce6197c770db6dba4321909194f0","infoHashBuffer":{"type":"Buffer","data":[200,32,174,44,149,193,206,97,151,199,112,219,109,186,67,33,144,145,148,240]},"announce":[],"urlList":[]}}